<svg xmlns="http://www.w3.org/2000/svg" width="980" height="560" viewBox="0 0 980 560">
<rect width="100%" height="100%" fill="#FFFFFF"/>
<text x="490.0" y="32.0" font-family="Arial, sans-serif" font-size="22" font-weight="700" fill="#1F2933" text-anchor="middle">Descendant Axis Runtime</text>
<text x="490.0" y="54.0" font-family="Arial, sans-serif" font-size="13" font-weight="normal" fill="#52606D" text-anchor="middle">Average runtime over 100 measured runs</text>
<rect x="90" y="70" width="630" height="385" fill="#FBFCFD" stroke="#D9E2EC"/>
<line x1="90.0" y1="70" x2="90.0" y2="455" stroke="#E5EAF0"/>
<text x="88.0" y="479.0" font-family="Arial, sans-serif" font-size="12" font-weight="normal" fill="#1F2933" text-anchor="end" transform="rotate(-35 88.0 479)">0.36M</text>
<line x1="121.8" y1="70" x2="121.8" y2="455" stroke="#E5EAF0"/>
<text x="119.8" y="479.0" font-family="Arial, sans-serif" font-size="12" font-weight="normal" fill="#1F2933" text-anchor="end" transform="rotate(-35 119.81451381127255 479)">0.46M</text>
<line x1="298.5" y1="70" x2="298.5" y2="455" stroke="#E5EAF0"/>
<text x="296.5" y="479.0" font-family="Arial, sans-serif" font-size="12" font-weight="normal" fill="#1F2933" text-anchor="end" transform="rotate(-35 296.5494810793549 479)">0.98M</text>
<line x1="720.0" y1="70" x2="720.0" y2="455" stroke="#E5EAF0"/>
<text x="718.0" y="479.0" font-family="Arial, sans-serif" font-size="12" font-weight="normal" fill="#1F2933" text-anchor="end" transform="rotate(-35 718.0 479)">2.24M</text>
<line x1="90" y1="455.0" x2="720" y2="455.0" stroke="#E5EAF0"/>
<text x="78.0" y="459.0" font-family="Arial, sans-serif" font-size="12" font-weight="normal" fill="#1F2933" text-anchor="end">0.05</text>
<line x1="90" y1="429.8" x2="720" y2="429.8" stroke="#E5EAF0"/>
<text x="78.0" y="433.8" font-family="Arial, sans-serif" font-size="12" font-weight="normal" fill="#1F2933" text-anchor="end">0.10</text>
<line x1="90" y1="404.6" x2="720" y2="404.6" stroke="#E5EAF0"/>
<text x="78.0" y="408.6" font-family="Arial, sans-serif" font-size="12" font-weight="normal" fill="#1F2933" text-anchor="end">0.20</text>
<line x1="90" y1="371.3" x2="720" y2="371.3" stroke="#E5EAF0"/>
<text x="78.0" y="375.3" font-family="Arial, sans-serif" font-size="12" font-weight="normal" fill="#1F2933" text-anchor="end">0.50</text>
<line x1="90" y1="346.2" x2="720" y2="346.2" stroke="#E5EAF0"/>
<text x="78.0" y="350.2" font-family="Arial, sans-serif" font-size="12" font-weight="normal" fill="#1F2933" text-anchor="end">1.0</text>
<line x1="90" y1="321.0" x2="720" y2="321.0" stroke="#E5EAF0"/>
<text x="78.0" y="325.0" font-family="Arial, sans-serif" font-size="12" font-weight="normal" fill="#1F2933" text-anchor="end">2.0</text>
<line x1="90" y1="287.7" x2="720" y2="287.7" stroke="#E5EAF0"/>
<text x="78.0" y="291.7" font-family="Arial, sans-serif" font-size="12" font-weight="normal" fill="#1F2933" text-anchor="end">5.0</text>
<line x1="90" y1="262.5" x2="720" y2="262.5" stroke="#E5EAF0"/>
<text x="78.0" y="266.5" font-family="Arial, sans-serif" font-size="12" font-weight="normal" fill="#1F2933" text-anchor="end">10</text>
<line x1="90" y1="237.3" x2="720" y2="237.3" stroke="#E5EAF0"/>
<text x="78.0" y="241.3" font-family="Arial, sans-serif" font-size="12" font-weight="normal" fill="#1F2933" text-anchor="end">20</text>
<line x1="90" y1="204.0" x2="720" y2="204.0" stroke="#E5EAF0"/>
<text x="78.0" y="208.0" font-family="Arial, sans-serif" font-size="12" font-weight="normal" fill="#1F2933" text-anchor="end">50</text>
<line x1="90" y1="178.8" x2="720" y2="178.8" stroke="#E5EAF0"/>
<text x="78.0" y="182.8" font-family="Arial, sans-serif" font-size="12" font-weight="normal" fill="#1F2933" text-anchor="end">100</text>
<line x1="90" y1="153.7" x2="720" y2="153.7" stroke="#E5EAF0"/>
<text x="78.0" y="157.7" font-family="Arial, sans-serif" font-size="12" font-weight="normal" fill="#1F2933" text-anchor="end">200</text>
<line x1="90" y1="120.4" x2="720" y2="120.4" stroke="#E5EAF0"/>
<text x="78.0" y="124.4" font-family="Arial, sans-serif" font-size="12" font-weight="normal" fill="#1F2933" text-anchor="end">500</text>
<line x1="90" y1="95.2" x2="720" y2="95.2" stroke="#E5EAF0"/>
<text x="78.0" y="99.2" font-family="Arial, sans-serif" font-size="12" font-weight="normal" fill="#1F2933" text-anchor="end">1000</text>
<line x1="90" y1="70.0" x2="720" y2="70.0" stroke="#E5EAF0"/>
<text x="78.0" y="74.0" font-family="Arial, sans-serif" font-size="12" font-weight="normal" fill="#1F2933" text-anchor="end">2000</text>
<line x1="90" y1="455" x2="720" y2="455" stroke="#334E68"/>
<line x1="90" y1="70" x2="90" y2="455" stroke="#334E68"/>
<text x="405.0" y="536.0" font-family="Arial, sans-serif" font-size="13" font-weight="normal" fill="#1F2933" text-anchor="middle">Dataset size (nodes)</text>
<text x="25.0" y="262.5" font-family="Arial, sans-serif" font-size="13" font-weight="normal" fill="#1F2933" text-anchor="middle" transform="rotate(-90 25 262.5)">Average runtime (ms, log scale)</text>
<polyline points="90.0,222.8 121.8,224.7 298.5,204.0 720.0,158.9" fill="none" stroke="#4C78A8" stroke-width="3"/>
<circle cx="90.0" cy="222.8" r="4.5" fill="#4C78A8" stroke="#FFFFFF" stroke-width="1.5"/>
<text x="90.0" y="212.8" font-family="Arial, sans-serif" font-size="10" font-weight="normal" fill="#4C78A8" text-anchor="middle">30</text>
<circle cx="121.8" cy="224.7" r="4.5" fill="#4C78A8" stroke="#FFFFFF" stroke-width="1.5"/>
<text x="121.8" y="214.7" font-family="Arial, sans-serif" font-size="10" font-weight="normal" fill="#4C78A8" text-anchor="middle">28</text>
<circle cx="298.5" cy="204.0" r="4.5" fill="#4C78A8" stroke="#FFFFFF" stroke-width="1.5"/>
<text x="298.5" y="194.0" font-family="Arial, sans-serif" font-size="10" font-weight="normal" fill="#4C78A8" text-anchor="middle">50</text>
<circle cx="720.0" cy="158.9" r="4.5" fill="#4C78A8" stroke="#FFFFFF" stroke-width="1.5"/>
<text x="720.0" y="148.9" font-family="Arial, sans-serif" font-size="10" font-weight="normal" fill="#4C78A8" text-anchor="middle">173</text>
<polyline points="90.0,274.4 121.8,275.4 298.5,245.6 720.0,222.9" fill="none" stroke="#F58518" stroke-width="3"/>
<circle cx="90.0" cy="274.4" r="4.5" fill="#F58518" stroke="#FFFFFF" stroke-width="1.5"/>
<text x="90.0" y="264.4" font-family="Arial, sans-serif" font-size="10" font-weight="normal" fill="#F58518" text-anchor="middle">7.2</text>
<circle cx="121.8" cy="275.4" r="4.5" fill="#F58518" stroke="#FFFFFF" stroke-width="1.5"/>
<text x="121.8" y="265.4" font-family="Arial, sans-serif" font-size="10" font-weight="normal" fill="#F58518" text-anchor="middle">7.0</text>
<circle cx="298.5" cy="245.6" r="4.5" fill="#F58518" stroke="#FFFFFF" stroke-width="1.5"/>
<text x="298.5" y="235.6" font-family="Arial, sans-serif" font-size="10" font-weight="normal" fill="#F58518" text-anchor="middle">16</text>
<circle cx="720.0" cy="222.9" r="4.5" fill="#F58518" stroke="#FFFFFF" stroke-width="1.5"/>
<text x="720.0" y="212.9" font-family="Arial, sans-serif" font-size="10" font-weight="normal" fill="#F58518" text-anchor="middle">30</text>
<polyline points="90.0,351.8 121.8,358.5 298.5,360.2 720.0,355.5" fill="none" stroke="#54A24B" stroke-width="3"/>
<circle cx="90.0" cy="351.8" r="4.5" fill="#54A24B" stroke="#FFFFFF" stroke-width="1.5"/>
<text x="90.0" y="341.8" font-family="Arial, sans-serif" font-size="10" font-weight="normal" fill="#54A24B" text-anchor="middle">0.86</text>
<circle cx="121.8" cy="358.5" r="4.5" fill="#54A24B" stroke="#FFFFFF" stroke-width="1.5"/>
<text x="121.8" y="348.5" font-family="Arial, sans-serif" font-size="10" font-weight="normal" fill="#54A24B" text-anchor="middle">0.71</text>
<circle cx="298.5" cy="360.2" r="4.5" fill="#54A24B" stroke="#FFFFFF" stroke-width="1.5"/>
<text x="298.5" y="350.2" font-family="Arial, sans-serif" font-size="10" font-weight="normal" fill="#54A24B" text-anchor="middle">0.68</text>
<circle cx="720.0" cy="355.5" r="4.5" fill="#54A24B" stroke="#FFFFFF" stroke-width="1.5"/>
<text x="720.0" y="345.5" font-family="Arial, sans-serif" font-size="10" font-weight="normal" fill="#54A24B" text-anchor="middle">0.77</text>
<polyline points="90.0,358.2 121.8,367.3 298.5,368.0 720.0,363.1" fill="none" stroke="#B279A2" stroke-width="3"/>
<circle cx="90.0" cy="358.2" r="4.5" fill="#B279A2" stroke="#FFFFFF" stroke-width="1.5"/>
<text x="90.0" y="348.2" font-family="Arial, sans-serif" font-size="10" font-weight="normal" fill="#B279A2" text-anchor="middle">0.72</text>
<circle cx="121.8" cy="367.3" r="4.5" fill="#B279A2" stroke="#FFFFFF" stroke-width="1.5"/>
<text x="121.8" y="357.3" font-family="Arial, sans-serif" font-size="10" font-weight="normal" fill="#B279A2" text-anchor="middle">0.56</text>
<circle cx="298.5" cy="368.0" r="4.5" fill="#B279A2" stroke="#FFFFFF" stroke-width="1.5"/>
<text x="298.5" y="358.0" font-family="Arial, sans-serif" font-size="10" font-weight="normal" fill="#B279A2" text-anchor="middle">0.55</text>
<circle cx="720.0" cy="363.1" r="4.5" fill="#B279A2" stroke="#FFFFFF" stroke-width="1.5"/>
<text x="720.0" y="353.1" font-family="Arial, sans-serif" font-size="10" font-weight="normal" fill="#B279A2" text-anchor="middle">0.63</text>
<text x="754.0" y="70.0" font-family="Arial, sans-serif" font-size="13" font-weight="700" fill="#1F2933" text-anchor="start">Approach</text>
<line x1="754" y1="86" x2="778" y2="86" stroke="#4C78A8" stroke-width="4"/>
<circle cx="766" cy="86" r="4.5" fill="#4C78A8" stroke="#FFFFFF" stroke-width="1.5"/>
<text x="788.0" y="90.0" font-family="Arial, sans-serif" font-size="12" font-weight="normal" fill="#1F2933" text-anchor="start">EDGE model</text>
<line x1="754" y1="114" x2="778" y2="114" stroke="#F58518" stroke-width="4"/>
<circle cx="766" cy="114" r="4.5" fill="#F58518" stroke="#FFFFFF" stroke-width="1.5"/>
<text x="788.0" y="118.0" font-family="Arial, sans-serif" font-size="12" font-weight="normal" fill="#1F2933" text-anchor="start">XPath accelerator</text>
<line x1="754" y1="142" x2="778" y2="142" stroke="#54A24B" stroke-width="4"/>
<circle cx="766" cy="142" r="4.5" fill="#54A24B" stroke="#FFFFFF" stroke-width="1.5"/>
<text x="788.0" y="146.0" font-family="Arial, sans-serif" font-size="12" font-weight="normal" fill="#1F2933" text-anchor="start">Reduced window</text>
<line x1="754" y1="170" x2="778" y2="170" stroke="#B279A2" stroke-width="4"/>
<circle cx="766" cy="170" r="4.5" fill="#B279A2" stroke="#FFFFFF" stroke-width="1.5"/>
<text x="788.0" y="174.0" font-family="Arial, sans-serif" font-size="12" font-weight="normal" fill="#1F2933" text-anchor="start">One-axis accelerator</text>
</svg>