<svg xmlns="http://www.w3.org/2000/svg" width="980" height="560" viewBox="0 0 980 560">
<rect width="100%" height="100%" fill="#FFFFFF"/>
<text x="490.0" y="32.0" font-family="Arial, sans-serif" font-size="22" font-weight="700" fill="#1F2933" text-anchor="middle">Ancestor Axis Runtime</text>
<text x="490.0" y="54.0" font-family="Arial, sans-serif" font-size="13" font-weight="normal" fill="#52606D" text-anchor="middle">Average runtime over 1,000 measured runs</text>
<rect x="90" y="70" width="630" height="385" fill="#FBFCFD" stroke="#D9E2EC"/>
<line x1="90.0" y1="70" x2="90.0" y2="455" stroke="#E5EAF0"/>
<text x="88.0" y="479.0" font-family="Arial, sans-serif" font-size="12" font-weight="normal" fill="#1F2933" text-anchor="end" transform="rotate(-35 88.0 479)">0.36M</text>
<line x1="121.8" y1="70" x2="121.8" y2="455" stroke="#E5EAF0"/>
<text x="119.8" y="479.0" font-family="Arial, sans-serif" font-size="12" font-weight="normal" fill="#1F2933" text-anchor="end" transform="rotate(-35 119.81451381127255 479)">0.46M</text>
<line x1="298.5" y1="70" x2="298.5" y2="455" stroke="#E5EAF0"/>
<text x="296.5" y="479.0" font-family="Arial, sans-serif" font-size="12" font-weight="normal" fill="#1F2933" text-anchor="end" transform="rotate(-35 296.5494810793549 479)">0.98M</text>
<line x1="720.0" y1="70" x2="720.0" y2="455" stroke="#E5EAF0"/>
<text x="718.0" y="479.0" font-family="Arial, sans-serif" font-size="12" font-weight="normal" fill="#1F2933" text-anchor="end" transform="rotate(-35 718.0 479)">2.24M</text>
<line x1="90" y1="455.0" x2="720" y2="455.0" stroke="#E5EAF0"/>
<text x="78.0" y="459.0" font-family="Arial, sans-serif" font-size="12" font-weight="normal" fill="#1F2933" text-anchor="end">0.05</text>
<line x1="90" y1="422.8" x2="720" y2="422.8" stroke="#E5EAF0"/>
<text x="78.0" y="426.8" font-family="Arial, sans-serif" font-size="12" font-weight="normal" fill="#1F2933" text-anchor="end">0.10</text>
<line x1="90" y1="390.6" x2="720" y2="390.6" stroke="#E5EAF0"/>
<text x="78.0" y="394.6" font-family="Arial, sans-serif" font-size="12" font-weight="normal" fill="#1F2933" text-anchor="end">0.20</text>
<line x1="90" y1="348.1" x2="720" y2="348.1" stroke="#E5EAF0"/>
<text x="78.0" y="352.1" font-family="Arial, sans-serif" font-size="12" font-weight="normal" fill="#1F2933" text-anchor="end">0.50</text>
<line x1="90" y1="315.9" x2="720" y2="315.9" stroke="#E5EAF0"/>
<text x="78.0" y="319.9" font-family="Arial, sans-serif" font-size="12" font-weight="normal" fill="#1F2933" text-anchor="end">1.0</text>
<line x1="90" y1="283.8" x2="720" y2="283.8" stroke="#E5EAF0"/>
<text x="78.0" y="287.8" font-family="Arial, sans-serif" font-size="12" font-weight="normal" fill="#1F2933" text-anchor="end">2.0</text>
<line x1="90" y1="241.2" x2="720" y2="241.2" stroke="#E5EAF0"/>
<text x="78.0" y="245.2" font-family="Arial, sans-serif" font-size="12" font-weight="normal" fill="#1F2933" text-anchor="end">5.0</text>
<line x1="90" y1="209.1" x2="720" y2="209.1" stroke="#E5EAF0"/>
<text x="78.0" y="213.1" font-family="Arial, sans-serif" font-size="12" font-weight="normal" fill="#1F2933" text-anchor="end">10</text>
<line x1="90" y1="176.9" x2="720" y2="176.9" stroke="#E5EAF0"/>
<text x="78.0" y="180.9" font-family="Arial, sans-serif" font-size="12" font-weight="normal" fill="#1F2933" text-anchor="end">20</text>
<line x1="90" y1="134.4" x2="720" y2="134.4" stroke="#E5EAF0"/>
<text x="78.0" y="138.4" font-family="Arial, sans-serif" font-size="12" font-weight="normal" fill="#1F2933" text-anchor="end">50</text>
<line x1="90" y1="102.2" x2="720" y2="102.2" stroke="#E5EAF0"/>
<text x="78.0" y="106.2" font-family="Arial, sans-serif" font-size="12" font-weight="normal" fill="#1F2933" text-anchor="end">100</text>
<line x1="90" y1="70.0" x2="720" y2="70.0" stroke="#E5EAF0"/>
<text x="78.0" y="74.0" font-family="Arial, sans-serif" font-size="12" font-weight="normal" fill="#1F2933" text-anchor="end">200</text>
<line x1="90" y1="455" x2="720" y2="455" stroke="#334E68"/>
<line x1="90" y1="70" x2="90" y2="455" stroke="#334E68"/>
<text x="405.0" y="536.0" font-family="Arial, sans-serif" font-size="13" font-weight="normal" fill="#1F2933" text-anchor="middle">Dataset size (nodes)</text>
<text x="25.0" y="262.5" font-family="Arial, sans-serif" font-size="13" font-weight="normal" fill="#1F2933" text-anchor="middle" transform="rotate(-90 25 262.5)">Average runtime (ms, log scale)</text>
<polyline points="90.0,377.1 121.8,387.3 298.5,177.2 720.0,138.6" fill="none" stroke="#4C78A8" stroke-width="3"/>
<circle cx="90.0" cy="377.1" r="4.5" fill="#4C78A8" stroke="#FFFFFF" stroke-width="1.5"/>
<text x="90.0" y="367.1" font-family="Arial, sans-serif" font-size="10" font-weight="normal" fill="#4C78A8" text-anchor="middle">0.27</text>
<circle cx="121.8" cy="387.3" r="4.5" fill="#4C78A8" stroke="#FFFFFF" stroke-width="1.5"/>
<text x="121.8" y="377.3" font-family="Arial, sans-serif" font-size="10" font-weight="normal" fill="#4C78A8" text-anchor="middle">0.21</text>
<circle cx="298.5" cy="177.2" r="4.5" fill="#4C78A8" stroke="#FFFFFF" stroke-width="1.5"/>
<text x="298.5" y="167.2" font-family="Arial, sans-serif" font-size="10" font-weight="normal" fill="#4C78A8" text-anchor="middle">20</text>
<circle cx="720.0" cy="138.6" r="4.5" fill="#4C78A8" stroke="#FFFFFF" stroke-width="1.5"/>
<text x="720.0" y="128.6" font-family="Arial, sans-serif" font-size="10" font-weight="normal" fill="#4C78A8" text-anchor="middle">46</text>
<polyline points="90.0,390.0 121.8,393.0 298.5,312.2 720.0,207.7" fill="none" stroke="#F58518" stroke-width="3"/>
<circle cx="90.0" cy="390.0" r="4.5" fill="#F58518" stroke="#FFFFFF" stroke-width="1.5"/>
<text x="90.0" y="380.0" font-family="Arial, sans-serif" font-size="10" font-weight="normal" fill="#F58518" text-anchor="middle">0.20</text>
<circle cx="121.8" cy="393.0" r="4.5" fill="#F58518" stroke="#FFFFFF" stroke-width="1.5"/>
<text x="121.8" y="383.0" font-family="Arial, sans-serif" font-size="10" font-weight="normal" fill="#F58518" text-anchor="middle">0.19</text>
<circle cx="298.5" cy="312.2" r="4.5" fill="#F58518" stroke="#FFFFFF" stroke-width="1.5"/>
<text x="298.5" y="302.2" font-family="Arial, sans-serif" font-size="10" font-weight="normal" fill="#F58518" text-anchor="middle">1.1</text>
<circle cx="720.0" cy="207.7" r="4.5" fill="#F58518" stroke="#FFFFFF" stroke-width="1.5"/>
<text x="720.0" y="197.7" font-family="Arial, sans-serif" font-size="10" font-weight="normal" fill="#F58518" text-anchor="middle">10</text>
<polyline points="90.0,383.8 121.8,393.0 298.5,300.0 720.0,205.2" fill="none" stroke="#54A24B" stroke-width="3"/>
<circle cx="90.0" cy="383.8" r="4.5" fill="#54A24B" stroke="#FFFFFF" stroke-width="1.5"/>
<text x="90.0" y="373.8" font-family="Arial, sans-serif" font-size="10" font-weight="normal" fill="#54A24B" text-anchor="middle">0.23</text>
<circle cx="121.8" cy="393.0" r="4.5" fill="#54A24B" stroke="#FFFFFF" stroke-width="1.5"/>
<text x="121.8" y="383.0" font-family="Arial, sans-serif" font-size="10" font-weight="normal" fill="#54A24B" text-anchor="middle">0.19</text>
<circle cx="298.5" cy="300.0" r="4.5" fill="#54A24B" stroke="#FFFFFF" stroke-width="1.5"/>
<text x="298.5" y="290.0" font-family="Arial, sans-serif" font-size="10" font-weight="normal" fill="#54A24B" text-anchor="middle">1.4</text>
<circle cx="720.0" cy="205.2" r="4.5" fill="#54A24B" stroke="#FFFFFF" stroke-width="1.5"/>
<text x="720.0" y="195.2" font-family="Arial, sans-serif" font-size="10" font-weight="normal" fill="#54A24B" text-anchor="middle">11</text>
<text x="754.0" y="70.0" font-family="Arial, sans-serif" font-size="13" font-weight="700" fill="#1F2933" text-anchor="start">Approach</text>
<line x1="754" y1="86" x2="778" y2="86" stroke="#4C78A8" stroke-width="4"/>
<circle cx="766" cy="86" r="4.5" fill="#4C78A8" stroke="#FFFFFF" stroke-width="1.5"/>
<text x="788.0" y="90.0" font-family="Arial, sans-serif" font-size="12" font-weight="normal" fill="#1F2933" text-anchor="start">EDGE model</text>
<line x1="754" y1="114" x2="778" y2="114" stroke="#F58518" stroke-width="4"/>
<circle cx="766" cy="114" r="4.5" fill="#F58518" stroke="#FFFFFF" stroke-width="1.5"/>
<text x="788.0" y="118.0" font-family="Arial, sans-serif" font-size="12" font-weight="normal" fill="#1F2933" text-anchor="start">XPath accelerator</text>
<line x1="754" y1="142" x2="778" y2="142" stroke="#54A24B" stroke-width="4"/>
<circle cx="766" cy="142" r="4.5" fill="#54A24B" stroke="#FFFFFF" stroke-width="1.5"/>
<text x="788.0" y="146.0" font-family="Arial, sans-serif" font-size="12" font-weight="normal" fill="#1F2933" text-anchor="start">Reduced window</text>
</svg>